<?xml version="1.0" encoding="UTF-8" standalone="no"?>
<!DOCTYPE svg PUBLIC "-//W3C//DTD SVG 1.1//EN"
 "http://www.w3.org/Graphics/SVG/1.1/DTD/svg11.dtd">
<!-- Generated by graphviz version 2.43.0 (0)
 -->
<!-- Pages: 1 -->
<svg width="308pt" height="119pt"
 viewBox="0.00 0.00 307.50 119.00" xmlns="http://www.w3.org/2000/svg" xmlns:xlink="http://www.w3.org/1999/xlink">
<g id="graph0" class="graph" transform="scale(1 1) rotate(0) translate(4 115)">
<!-- el cuarto del trono 👑 -->
<g id="node1" class="node">
<title>el cuarto del trono 👑</title>
<path fill="#b2dfee" stroke="#b2dfee" d="M13.5,-73.5C13.5,-73.5 156.5,-73.5 156.5,-73.5 162.5,-73.5 168.5,-79.5 168.5,-85.5 168.5,-85.5 168.5,-98.5 168.5,-98.5 168.5,-104.5 162.5,-110.5 156.5,-110.5 156.5,-110.5 13.5,-110.5 13.5,-110.5 7.5,-110.5 1.5,-104.5 1.5,-98.5 1.5,-98.5 1.5,-85.5 1.5,-85.5 1.5,-79.5 7.5,-73.5 13.5,-73.5"/>
<text text-anchor="middle" x="85" y="-88.3" font-family="Raleway" font-size="14.00">el cuarto del trono 👑</text>
</g>
<!-- la cámara funeraria ⚱️ -->
<g id="node2" class="node">
<title>la cámara funeraria ⚱️</title>
<path fill="#b2dfee" stroke="#b2dfee" d="M12,-0.5C12,-0.5 158,-0.5 158,-0.5 164,-0.5 170,-6.5 170,-12.5 170,-12.5 170,-25.5 170,-25.5 170,-31.5 164,-37.5 158,-37.5 158,-37.5 12,-37.5 12,-37.5 6,-37.5 0,-31.5 0,-25.5 0,-25.5 0,-12.5 0,-12.5 0,-6.5 6,-0.5 12,-0.5"/>
<text text-anchor="middle" x="85" y="-15.3" font-family="Raleway" font-size="14.00">la cámara funeraria ⚱️</text>
</g>
<!-- el cuarto del trono 👑&#45;&#45;la cámara funeraria ⚱️ -->
<g id="edge1" class="edge">
<title>el cuarto del trono 👑&#45;&#45;la cámara funeraria ⚱️</title>
<path fill="none" stroke="gray" d="M85,-73.81C85,-62.65 85,-48.16 85,-37.03"/>
</g>
<!-- el templo 📿 -->
<g id="node3" class="node">
<title>el templo 📿</title>
<path fill="#b2dfee" stroke="#b2dfee" d="M201.5,-0.5C201.5,-0.5 282.5,-0.5 282.5,-0.5 288.5,-0.5 294.5,-6.5 294.5,-12.5 294.5,-12.5 294.5,-25.5 294.5,-25.5 294.5,-31.5 288.5,-37.5 282.5,-37.5 282.5,-37.5 201.5,-37.5 201.5,-37.5 195.5,-37.5 189.5,-31.5 189.5,-25.5 189.5,-25.5 189.5,-12.5 189.5,-12.5 189.5,-6.5 195.5,-0.5 201.5,-0.5"/>
<text text-anchor="middle" x="242" y="-15.3" font-family="Raleway" font-size="14.00">el templo 📿</text>
</g>
<!-- el cuarto del trono 👑&#45;&#45;el templo 📿 -->
<g id="edge2" class="edge">
<title>el cuarto del trono 👑&#45;&#45;el templo 📿</title>
<path fill="none" stroke="gray" d="M122.61,-73.99C147.28,-62.84 179.43,-48.29 204.16,-37.11"/>
</g>
<!-- el desierto 🏜️ -->
<g id="node4" class="node">
<title>el desierto 🏜️</title>
<path fill="#b2dfee" stroke="#b2dfee" d="M198.5,-73.5C198.5,-73.5 287.5,-73.5 287.5,-73.5 293.5,-73.5 299.5,-79.5 299.5,-85.5 299.5,-85.5 299.5,-98.5 299.5,-98.5 299.5,-104.5 293.5,-110.5 287.5,-110.5 287.5,-110.5 198.5,-110.5 198.5,-110.5 192.5,-110.5 186.5,-104.5 186.5,-98.5 186.5,-98.5 186.5,-85.5 186.5,-85.5 186.5,-79.5 192.5,-73.5 198.5,-73.5"/>
<text text-anchor="middle" x="243" y="-88.3" font-family="Raleway" font-size="14.00">el desierto 🏜️</text>
</g>
<!-- el desierto 🏜️&#45;&#45;el templo 📿 -->
<g id="edge3" class="edge">
<title>el desierto 🏜️&#45;&#45;el templo 📿</title>
<path fill="none" stroke="gray" d="M242.76,-73.81C242.6,-62.65 242.4,-48.16 242.24,-37.03"/>
</g>
</g>
</svg>
