<?xml version="1.0" encoding="UTF-8" standalone="no"?>
<!DOCTYPE svg PUBLIC "-//W3C//DTD SVG 1.1//EN"
 "http://www.w3.org/Graphics/SVG/1.1/DTD/svg11.dtd">
<!-- Generated by graphviz version 2.43.0 (0)
 -->
<!-- Pages: 1 -->
<svg width="303pt" height="192pt"
 viewBox="0.00 0.00 302.50 192.00" xmlns="http://www.w3.org/2000/svg" xmlns:xlink="http://www.w3.org/1999/xlink">
<g id="graph0" class="graph" transform="scale(1 1) rotate(0) translate(4 188)">
<!-- el recinto de leones 🦁 -->
<g id="node1" class="node">
<title>el recinto de leones 🦁</title>
<path fill="#b2dfee" stroke="#b2dfee" d="M50,-146.5C50,-146.5 202,-146.5 202,-146.5 208,-146.5 214,-152.5 214,-158.5 214,-158.5 214,-171.5 214,-171.5 214,-177.5 208,-183.5 202,-183.5 202,-183.5 50,-183.5 50,-183.5 44,-183.5 38,-177.5 38,-171.5 38,-171.5 38,-158.5 38,-158.5 38,-152.5 44,-146.5 50,-146.5"/>
<text text-anchor="middle" x="126" y="-161.3" font-family="Raleway" font-size="14.00">el recinto de leones 🦁</text>
</g>
<!-- la casa de reptiles 🦎 -->
<g id="node2" class="node">
<title>la casa de reptiles 🦎</title>
<path fill="#b2dfee" stroke="#b2dfee" d="M55,-73.5C55,-73.5 197,-73.5 197,-73.5 203,-73.5 209,-79.5 209,-85.5 209,-85.5 209,-98.5 209,-98.5 209,-104.5 203,-110.5 197,-110.5 197,-110.5 55,-110.5 55,-110.5 49,-110.5 43,-104.5 43,-98.5 43,-98.5 43,-85.5 43,-85.5 43,-79.5 49,-73.5 55,-73.5"/>
<text text-anchor="middle" x="126" y="-88.3" font-family="Raleway" font-size="14.00">la casa de reptiles 🦎</text>
</g>
<!-- el recinto de leones 🦁&#45;&#45;la casa de reptiles 🦎 -->
<g id="edge1" class="edge">
<title>el recinto de leones 🦁&#45;&#45;la casa de reptiles 🦎</title>
<path fill="none" stroke="gray" d="M126,-146.81C126,-135.65 126,-121.16 126,-110.03"/>
</g>
<!-- el aviario 🦜 -->
<g id="node3" class="node">
<title>el aviario 🦜</title>
<path fill="#b2dfee" stroke="#b2dfee" d="M12,-0.5C12,-0.5 92,-0.5 92,-0.5 98,-0.5 104,-6.5 104,-12.5 104,-12.5 104,-25.5 104,-25.5 104,-31.5 98,-37.5 92,-37.5 92,-37.5 12,-37.5 12,-37.5 6,-37.5 0,-31.5 0,-25.5 0,-25.5 0,-12.5 0,-12.5 0,-6.5 6,-0.5 12,-0.5"/>
<text text-anchor="middle" x="52" y="-15.3" font-family="Raleway" font-size="14.00">el aviario 🦜</text>
</g>
<!-- el recinto de leones 🦁&#45;&#45;el aviario 🦜 -->
<g id="edge2" class="edge">
<title>el recinto de leones 🦁&#45;&#45;el aviario 🦜</title>
<path fill="none" stroke="gray" d="M76.38,-146.95C59.91,-138.65 43.4,-126.84 34,-110.5 20.74,-87.45 32.24,-56.24 41.97,-37.15"/>
</g>
<!-- la isla de monos 🐒 -->
<g id="node4" class="node">
<title>la isla de monos 🐒</title>
<path fill="#b2dfee" stroke="#b2dfee" d="M153.5,-0.5C153.5,-0.5 282.5,-0.5 282.5,-0.5 288.5,-0.5 294.5,-6.5 294.5,-12.5 294.5,-12.5 294.5,-25.5 294.5,-25.5 294.5,-31.5 288.5,-37.5 282.5,-37.5 282.5,-37.5 153.5,-37.5 153.5,-37.5 147.5,-37.5 141.5,-31.5 141.5,-25.5 141.5,-25.5 141.5,-12.5 141.5,-12.5 141.5,-6.5 147.5,-0.5 153.5,-0.5"/>
<text text-anchor="middle" x="218" y="-15.3" font-family="Raleway" font-size="14.00">la isla de monos 🐒</text>
</g>
<!-- el recinto de leones 🦁&#45;&#45;la isla de monos 🐒 -->
<g id="edge3" class="edge">
<title>el recinto de leones 🦁&#45;&#45;la isla de monos 🐒</title>
<path fill="none" stroke="gray" d="M175.62,-146.95C192.09,-138.65 208.6,-126.84 218,-110.5 231.01,-87.89 227.14,-56.55 222.82,-37.31"/>
</g>
<!-- la casa de reptiles 🦎&#45;&#45;el aviario 🦜 -->
<g id="edge4" class="edge">
<title>la casa de reptiles 🦎&#45;&#45;el aviario 🦜</title>
<path fill="none" stroke="gray" d="M108.09,-73.81C96.45,-62.65 81.35,-48.16 69.75,-37.03"/>
</g>
<!-- la casa de reptiles 🦎&#45;&#45;la isla de monos 🐒 -->
<g id="edge5" class="edge">
<title>la casa de reptiles 🦎&#45;&#45;la isla de monos 🐒</title>
<path fill="none" stroke="gray" d="M148.27,-73.81C162.74,-62.65 181.51,-48.16 195.93,-37.03"/>
</g>
</g>
</svg>
