<?xml version="1.0" encoding="UTF-8" standalone="no"?>
<!DOCTYPE svg PUBLIC "-//W3C//DTD SVG 1.1//EN"
 "http://www.w3.org/Graphics/SVG/1.1/DTD/svg11.dtd">
<!-- Generated by graphviz version 2.43.0 (0)
 -->
<!-- Pages: 1 -->
<svg width="308pt" height="192pt"
 viewBox="0.00 0.00 308.00 192.00" xmlns="http://www.w3.org/2000/svg" xmlns:xlink="http://www.w3.org/1999/xlink">
<g id="graph0" class="graph" transform="scale(1 1) rotate(0) translate(4 188)">
<!-- el laboratorio de ciencias 🔬 -->
<g id="node1" class="node">
<title>el laboratorio de ciencias 🔬</title>
<path fill="#b2dfee" stroke="#b2dfee" d="M12,-146.5C12,-146.5 202,-146.5 202,-146.5 208,-146.5 214,-152.5 214,-158.5 214,-158.5 214,-171.5 214,-171.5 214,-177.5 208,-183.5 202,-183.5 202,-183.5 12,-183.5 12,-183.5 6,-183.5 0,-177.5 0,-171.5 0,-171.5 0,-158.5 0,-158.5 0,-152.5 6,-146.5 12,-146.5"/>
<text text-anchor="middle" x="107" y="-161.3" font-family="Raleway" font-size="14.00">el laboratorio de ciencias 🔬</text>
</g>
<!-- la biblioteca 📚 -->
<g id="node2" class="node">
<title>la biblioteca 📚</title>
<path fill="#b2dfee" stroke="#b2dfee" d="M12,-73.5C12,-73.5 112,-73.5 112,-73.5 118,-73.5 124,-79.5 124,-85.5 124,-85.5 124,-98.5 124,-98.5 124,-104.5 118,-110.5 112,-110.5 112,-110.5 12,-110.5 12,-110.5 6,-110.5 0,-104.5 0,-98.5 0,-98.5 0,-85.5 0,-85.5 0,-79.5 6,-73.5 12,-73.5"/>
<text text-anchor="middle" x="62" y="-88.3" font-family="Raleway" font-size="14.00">la biblioteca 📚</text>
</g>
<!-- el laboratorio de ciencias 🔬&#45;&#45;la biblioteca 📚 -->
<g id="edge1" class="edge">
<title>el laboratorio de ciencias 🔬&#45;&#45;la biblioteca 📚</title>
<path fill="none" stroke="gray" d="M96.11,-146.81C89.03,-135.65 79.85,-121.16 72.79,-110.03"/>
</g>
<!-- el aula de arte 🎨 -->
<g id="node3" class="node">
<title>el aula de arte 🎨</title>
<path fill="#b2dfee" stroke="#b2dfee" d="M94,-0.5C94,-0.5 210,-0.5 210,-0.5 216,-0.5 222,-6.5 222,-12.5 222,-12.5 222,-25.5 222,-25.5 222,-31.5 216,-37.5 210,-37.5 210,-37.5 94,-37.5 94,-37.5 88,-37.5 82,-31.5 82,-25.5 82,-25.5 82,-12.5 82,-12.5 82,-6.5 88,-0.5 94,-0.5"/>
<text text-anchor="middle" x="152" y="-15.3" font-family="Raleway" font-size="14.00">el aula de arte 🎨</text>
</g>
<!-- el laboratorio de ciencias 🔬&#45;&#45;el aula de arte 🎨 -->
<g id="edge2" class="edge">
<title>el laboratorio de ciencias 🔬&#45;&#45;el aula de arte 🎨</title>
<path fill="none" stroke="gray" d="M116.79,-146.63C122.22,-136.38 128.72,-123.01 133,-110.5 141.52,-85.59 146.92,-55.45 149.7,-37.01"/>
</g>
<!-- la biblioteca 📚&#45;&#45;el aula de arte 🎨 -->
<g id="edge3" class="edge">
<title>la biblioteca 📚&#45;&#45;el aula de arte 🎨</title>
<path fill="none" stroke="gray" d="M83.79,-73.81C97.94,-62.65 116.3,-48.16 130.41,-37.03"/>
</g>
<!-- el gimnasio 💪 -->
<g id="node4" class="node">
<title>el gimnasio 💪</title>
<path fill="#b2dfee" stroke="#b2dfee" d="M192,-73.5C192,-73.5 288,-73.5 288,-73.5 294,-73.5 300,-79.5 300,-85.5 300,-85.5 300,-98.5 300,-98.5 300,-104.5 294,-110.5 288,-110.5 288,-110.5 192,-110.5 192,-110.5 186,-110.5 180,-104.5 180,-98.5 180,-98.5 180,-85.5 180,-85.5 180,-79.5 186,-73.5 192,-73.5"/>
<text text-anchor="middle" x="240" y="-88.3" font-family="Raleway" font-size="14.00">el gimnasio 💪</text>
</g>
<!-- el gimnasio 💪&#45;&#45;el aula de arte 🎨 -->
<g id="edge4" class="edge">
<title>el gimnasio 💪&#45;&#45;el aula de arte 🎨</title>
<path fill="none" stroke="gray" d="M218.7,-73.81C204.86,-62.65 186.9,-48.16 173.11,-37.03"/>
</g>
</g>
</svg>
