<?xml version="1.0" encoding="UTF-8" standalone="no"?>
<!DOCTYPE svg PUBLIC "-//W3C//DTD SVG 1.1//EN"
 "http://www.w3.org/Graphics/SVG/1.1/DTD/svg11.dtd">
<!-- Generated by graphviz version 2.43.0 (0)
 -->
<!-- Pages: 1 -->
<svg width="282pt" height="192pt"
 viewBox="0.00 0.00 282.00 192.00" xmlns="http://www.w3.org/2000/svg" xmlns:xlink="http://www.w3.org/1999/xlink">
<g id="graph0" class="graph" transform="scale(1 1) rotate(0) translate(4 188)">
<!-- la armería 🔒 -->
<g id="node1" class="node">
<title>la armería 🔒</title>
<path fill="#b2dfee" stroke="#b2dfee" d="M176,-146.5C176,-146.5 262,-146.5 262,-146.5 268,-146.5 274,-152.5 274,-158.5 274,-158.5 274,-171.5 274,-171.5 274,-177.5 268,-183.5 262,-183.5 262,-183.5 176,-183.5 176,-183.5 170,-183.5 164,-177.5 164,-171.5 164,-171.5 164,-158.5 164,-158.5 164,-152.5 170,-146.5 176,-146.5"/>
<text text-anchor="middle" x="219" y="-161.3" font-family="Raleway" font-size="14.00">la armería 🔒</text>
</g>
<!-- el centro de mando 🖥️ -->
<g id="node2" class="node">
<title>el centro de mando 🖥️</title>
<path fill="#b2dfee" stroke="#b2dfee" d="M27.5,-73.5C27.5,-73.5 178.5,-73.5 178.5,-73.5 184.5,-73.5 190.5,-79.5 190.5,-85.5 190.5,-85.5 190.5,-98.5 190.5,-98.5 190.5,-104.5 184.5,-110.5 178.5,-110.5 178.5,-110.5 27.5,-110.5 27.5,-110.5 21.5,-110.5 15.5,-104.5 15.5,-98.5 15.5,-98.5 15.5,-85.5 15.5,-85.5 15.5,-79.5 21.5,-73.5 27.5,-73.5"/>
<text text-anchor="middle" x="103" y="-88.3" font-family="Raleway" font-size="14.00">el centro de mando 🖥️</text>
</g>
<!-- la armería 🔒&#45;&#45;el centro de mando 🖥️ -->
<g id="edge1" class="edge">
<title>la armería 🔒&#45;&#45;el centro de mando 🖥️</title>
<path fill="none" stroke="gray" d="M191.22,-146.99C172.98,-135.83 149.23,-121.29 130.96,-110.11"/>
</g>
<!-- los barracones 🛏️ -->
<g id="node3" class="node">
<title>los barracones 🛏️</title>
<path fill="#b2dfee" stroke="#b2dfee" d="M102,-0.5C102,-0.5 220,-0.5 220,-0.5 226,-0.5 232,-6.5 232,-12.5 232,-12.5 232,-25.5 232,-25.5 232,-31.5 226,-37.5 220,-37.5 220,-37.5 102,-37.5 102,-37.5 96,-37.5 90,-31.5 90,-25.5 90,-25.5 90,-12.5 90,-12.5 90,-6.5 96,-0.5 102,-0.5"/>
<text text-anchor="middle" x="161" y="-15.3" font-family="Raleway" font-size="14.00">los barracones 🛏️</text>
</g>
<!-- la armería 🔒&#45;&#45;los barracones 🛏️ -->
<g id="edge2" class="edge">
<title>la armería 🔒&#45;&#45;los barracones 🛏️</title>
<path fill="none" stroke="gray" d="M217.58,-147C215.55,-128.3 210.76,-97.7 200,-73.5 194.12,-60.27 184.58,-47.1 176.4,-37.14"/>
</g>
<!-- el centro de mando 🖥️&#45;&#45;los barracones 🛏️ -->
<g id="edge3" class="edge">
<title>el centro de mando 🖥️&#45;&#45;los barracones 🛏️</title>
<path fill="none" stroke="gray" d="M117.04,-73.81C126.16,-62.65 138,-48.16 147.09,-37.03"/>
</g>
<!-- la sala de radio 📡 -->
<g id="node4" class="node">
<title>la sala de radio 📡</title>
<path fill="#b2dfee" stroke="#b2dfee" d="M12,-146.5C12,-146.5 134,-146.5 134,-146.5 140,-146.5 146,-152.5 146,-158.5 146,-158.5 146,-171.5 146,-171.5 146,-177.5 140,-183.5 134,-183.5 134,-183.5 12,-183.5 12,-183.5 6,-183.5 0,-177.5 0,-171.5 0,-171.5 0,-158.5 0,-158.5 0,-152.5 6,-146.5 12,-146.5"/>
<text text-anchor="middle" x="73" y="-161.3" font-family="Raleway" font-size="14.00">la sala de radio 📡</text>
</g>
<!-- la sala de radio 📡&#45;&#45;el centro de mando 🖥️ -->
<g id="edge4" class="edge">
<title>la sala de radio 📡&#45;&#45;el centro de mando 🖥️</title>
<path fill="none" stroke="gray" d="M80.26,-146.81C84.98,-135.65 91.1,-121.16 95.81,-110.03"/>
</g>
</g>
</svg>
