<?xml version="1.0" encoding="UTF-8" standalone="no"?>
<!DOCTYPE svg PUBLIC "-//W3C//DTD SVG 1.1//EN"
 "http://www.w3.org/Graphics/SVG/1.1/DTD/svg11.dtd">
<!-- Generated by graphviz version 2.43.0 (0)
 -->
<!-- Pages: 1 -->
<svg width="348pt" height="119pt"
 viewBox="0.00 0.00 347.50 119.00" xmlns="http://www.w3.org/2000/svg" xmlns:xlink="http://www.w3.org/1999/xlink">
<g id="graph0" class="graph" transform="scale(1 1) rotate(0) translate(4 115)">
<!-- el gran salón 🍷 -->
<g id="node1" class="node">
<title>el gran salón 🍷</title>
<path fill="#b2dfee" stroke="#b2dfee" d="M63,-73.5C63,-73.5 170,-73.5 170,-73.5 176,-73.5 182,-79.5 182,-85.5 182,-85.5 182,-98.5 182,-98.5 182,-104.5 176,-110.5 170,-110.5 170,-110.5 63,-110.5 63,-110.5 57,-110.5 51,-104.5 51,-98.5 51,-98.5 51,-85.5 51,-85.5 51,-79.5 57,-73.5 63,-73.5"/>
<text text-anchor="middle" x="116.5" y="-88.3" font-family="Raleway" font-size="14.00">el gran salón 🍷</text>
</g>
<!-- el dormitorio principal 🛏️ -->
<g id="node2" class="node">
<title>el dormitorio principal 🛏️</title>
<path fill="#b2dfee" stroke="#b2dfee" d="M12,-0.5C12,-0.5 181,-0.5 181,-0.5 187,-0.5 193,-6.5 193,-12.5 193,-12.5 193,-25.5 193,-25.5 193,-31.5 187,-37.5 181,-37.5 181,-37.5 12,-37.5 12,-37.5 6,-37.5 0,-31.5 0,-25.5 0,-25.5 0,-12.5 0,-12.5 0,-6.5 6,-0.5 12,-0.5"/>
<text text-anchor="middle" x="96.5" y="-15.3" font-family="Raleway" font-size="14.00">el dormitorio principal 🛏️</text>
</g>
<!-- el gran salón 🍷&#45;&#45;el dormitorio principal 🛏️ -->
<g id="edge1" class="edge">
<title>el gran salón 🍷&#45;&#45;el dormitorio principal 🛏️</title>
<path fill="none" stroke="gray" d="M111.66,-73.81C108.51,-62.65 104.43,-48.16 101.3,-37.03"/>
</g>
<!-- la mazmorra 🔒 -->
<g id="node3" class="node">
<title>la mazmorra 🔒</title>
<path fill="#b2dfee" stroke="#b2dfee" d="M223.5,-0.5C223.5,-0.5 327.5,-0.5 327.5,-0.5 333.5,-0.5 339.5,-6.5 339.5,-12.5 339.5,-12.5 339.5,-25.5 339.5,-25.5 339.5,-31.5 333.5,-37.5 327.5,-37.5 327.5,-37.5 223.5,-37.5 223.5,-37.5 217.5,-37.5 211.5,-31.5 211.5,-25.5 211.5,-25.5 211.5,-12.5 211.5,-12.5 211.5,-6.5 217.5,-0.5 223.5,-0.5"/>
<text text-anchor="middle" x="275.5" y="-15.3" font-family="Raleway" font-size="14.00">la mazmorra 🔒</text>
</g>
<!-- el gran salón 🍷&#45;&#45;la mazmorra 🔒 -->
<g id="edge2" class="edge">
<title>el gran salón 🍷&#45;&#45;la mazmorra 🔒</title>
<path fill="none" stroke="gray" d="M154.58,-73.99C179.57,-62.84 212.14,-48.29 237.18,-37.11"/>
</g>
<!-- la armería 🛡️ -->
<g id="node4" class="node">
<title>la armería 🛡️</title>
<path fill="#b2dfee" stroke="#b2dfee" d="M232.5,-73.5C232.5,-73.5 318.5,-73.5 318.5,-73.5 324.5,-73.5 330.5,-79.5 330.5,-85.5 330.5,-85.5 330.5,-98.5 330.5,-98.5 330.5,-104.5 324.5,-110.5 318.5,-110.5 318.5,-110.5 232.5,-110.5 232.5,-110.5 226.5,-110.5 220.5,-104.5 220.5,-98.5 220.5,-98.5 220.5,-85.5 220.5,-85.5 220.5,-79.5 226.5,-73.5 232.5,-73.5"/>
<text text-anchor="middle" x="275.5" y="-88.3" font-family="Raleway" font-size="14.00">la armería 🛡️</text>
</g>
<!-- la armería 🛡️&#45;&#45;la mazmorra 🔒 -->
<g id="edge3" class="edge">
<title>la armería 🛡️&#45;&#45;la mazmorra 🔒</title>
<path fill="none" stroke="gray" d="M275.5,-73.81C275.5,-62.65 275.5,-48.16 275.5,-37.03"/>
</g>
</g>
</svg>
