<?xml version="1.0" encoding="UTF-8" standalone="no"?>
<!DOCTYPE svg PUBLIC "-//W3C//DTD SVG 1.1//EN"
 "http://www.w3.org/Graphics/SVG/1.1/DTD/svg11.dtd">
<!-- Generated by graphviz version 2.43.0 (0)
 -->
<!-- Pages: 1 -->
<svg width="232pt" height="265pt"
 viewBox="0.00 0.00 232.00 265.00" xmlns="http://www.w3.org/2000/svg" xmlns:xlink="http://www.w3.org/1999/xlink">
<g id="graph0" class="graph" transform="scale(1 1) rotate(0) translate(4 261)">
<!-- el gran salón 🍷 -->
<g id="node1" class="node">
<title>el gran salón 🍷</title>
<path fill="#b2dfee" stroke="#b2dfee" d="M105,-219.5C105,-219.5 212,-219.5 212,-219.5 218,-219.5 224,-225.5 224,-231.5 224,-231.5 224,-244.5 224,-244.5 224,-250.5 218,-256.5 212,-256.5 212,-256.5 105,-256.5 105,-256.5 99,-256.5 93,-250.5 93,-244.5 93,-244.5 93,-231.5 93,-231.5 93,-225.5 99,-219.5 105,-219.5"/>
<text text-anchor="middle" x="158.5" y="-234.3" font-family="Raleway" font-size="14.00">el gran salón 🍷</text>
</g>
<!-- el dormitorio principal 🛏️ -->
<g id="node2" class="node">
<title>el dormitorio principal 🛏️</title>
<path fill="#b2dfee" stroke="#b2dfee" d="M12,-146.5C12,-146.5 181,-146.5 181,-146.5 187,-146.5 193,-152.5 193,-158.5 193,-158.5 193,-171.5 193,-171.5 193,-177.5 187,-183.5 181,-183.5 181,-183.5 12,-183.5 12,-183.5 6,-183.5 0,-177.5 0,-171.5 0,-171.5 0,-158.5 0,-158.5 0,-152.5 6,-146.5 12,-146.5"/>
<text text-anchor="middle" x="96.5" y="-161.3" font-family="Raleway" font-size="14.00">el dormitorio principal 🛏️</text>
</g>
<!-- el gran salón 🍷&#45;&#45;el dormitorio principal 🛏️ -->
<g id="edge1" class="edge">
<title>el gran salón 🍷&#45;&#45;el dormitorio principal 🛏️</title>
<path fill="none" stroke="gray" d="M143.49,-219.81C133.74,-208.65 121.09,-194.16 111.37,-183.03"/>
</g>
<!-- la armería 🛡️ -->
<g id="node3" class="node">
<title>la armería 🛡️</title>
<path fill="#b2dfee" stroke="#b2dfee" d="M115.5,-73.5C115.5,-73.5 201.5,-73.5 201.5,-73.5 207.5,-73.5 213.5,-79.5 213.5,-85.5 213.5,-85.5 213.5,-98.5 213.5,-98.5 213.5,-104.5 207.5,-110.5 201.5,-110.5 201.5,-110.5 115.5,-110.5 115.5,-110.5 109.5,-110.5 103.5,-104.5 103.5,-98.5 103.5,-98.5 103.5,-85.5 103.5,-85.5 103.5,-79.5 109.5,-73.5 115.5,-73.5"/>
<text text-anchor="middle" x="158.5" y="-88.3" font-family="Raleway" font-size="14.00">la armería 🛡️</text>
</g>
<!-- el gran salón 🍷&#45;&#45;la armería 🛡️ -->
<g id="edge2" class="edge">
<title>el gran salón 🍷&#45;&#45;la armería 🛡️</title>
<path fill="none" stroke="gray" d="M177.98,-219.72C187.33,-210.11 197.55,-197.31 202.5,-183.5 208.05,-168.02 208.05,-161.98 202.5,-146.5 197.55,-132.69 187.33,-119.89 177.98,-110.28"/>
</g>
<!-- el dormitorio principal 🛏️&#45;&#45;la armería 🛡️ -->
<g id="edge3" class="edge">
<title>el dormitorio principal 🛏️&#45;&#45;la armería 🛡️</title>
<path fill="none" stroke="gray" d="M111.51,-146.81C121.26,-135.65 133.91,-121.16 143.63,-110.03"/>
</g>
<!-- la mazmorra 🔒 -->
<g id="node4" class="node">
<title>la mazmorra 🔒</title>
<path fill="#b2dfee" stroke="#b2dfee" d="M106.5,-0.5C106.5,-0.5 210.5,-0.5 210.5,-0.5 216.5,-0.5 222.5,-6.5 222.5,-12.5 222.5,-12.5 222.5,-25.5 222.5,-25.5 222.5,-31.5 216.5,-37.5 210.5,-37.5 210.5,-37.5 106.5,-37.5 106.5,-37.5 100.5,-37.5 94.5,-31.5 94.5,-25.5 94.5,-25.5 94.5,-12.5 94.5,-12.5 94.5,-6.5 100.5,-0.5 106.5,-0.5"/>
<text text-anchor="middle" x="158.5" y="-15.3" font-family="Raleway" font-size="14.00">la mazmorra 🔒</text>
</g>
<!-- la armería 🛡️&#45;&#45;la mazmorra 🔒 -->
<g id="edge4" class="edge">
<title>la armería 🛡️&#45;&#45;la mazmorra 🔒</title>
<path fill="none" stroke="gray" d="M158.5,-73.81C158.5,-62.65 158.5,-48.16 158.5,-37.03"/>
</g>
</g>
</svg>
