<?xml version="1.0" encoding="UTF-8" standalone="no"?>
<!DOCTYPE svg PUBLIC "-//W3C//DTD SVG 1.1//EN"
 "http://www.w3.org/Graphics/SVG/1.1/DTD/svg11.dtd">
<!-- Generated by graphviz version 2.43.0 (0)
 -->
<!-- Pages: 1 -->
<svg width="276pt" height="192pt"
 viewBox="0.00 0.00 276.00 192.00" xmlns="http://www.w3.org/2000/svg" xmlns:xlink="http://www.w3.org/1999/xlink">
<g id="graph0" class="graph" transform="scale(1 1) rotate(0) translate(4 188)">
<!-- оружейная 🔒 -->
<g id="node1" class="node">
<title>оружейная 🔒</title>
<path fill="#b2dfee" stroke="#b2dfee" d="M158,-146.5C158,-146.5 256,-146.5 256,-146.5 262,-146.5 268,-152.5 268,-158.5 268,-158.5 268,-171.5 268,-171.5 268,-177.5 262,-183.5 256,-183.5 256,-183.5 158,-183.5 158,-183.5 152,-183.5 146,-177.5 146,-171.5 146,-171.5 146,-158.5 146,-158.5 146,-152.5 152,-146.5 158,-146.5"/>
<text text-anchor="middle" x="207" y="-161.3" font-family="Raleway" font-size="14.00">оружейная 🔒</text>
</g>
<!-- командный центр 🖥️ -->
<g id="node2" class="node">
<title>командный центр 🖥️</title>
<path fill="#b2dfee" stroke="#b2dfee" d="M17.5,-73.5C17.5,-73.5 166.5,-73.5 166.5,-73.5 172.5,-73.5 178.5,-79.5 178.5,-85.5 178.5,-85.5 178.5,-98.5 178.5,-98.5 178.5,-104.5 172.5,-110.5 166.5,-110.5 166.5,-110.5 17.5,-110.5 17.5,-110.5 11.5,-110.5 5.5,-104.5 5.5,-98.5 5.5,-98.5 5.5,-85.5 5.5,-85.5 5.5,-79.5 11.5,-73.5 17.5,-73.5"/>
<text text-anchor="middle" x="92" y="-88.3" font-family="Raleway" font-size="14.00">командный центр 🖥️</text>
</g>
<!-- оружейная 🔒&#45;&#45;командный центр 🖥️ -->
<g id="edge1" class="edge">
<title>оружейная 🔒&#45;&#45;командный центр 🖥️</title>
<path fill="none" stroke="gray" d="M179.45,-146.99C161.38,-135.83 137.83,-121.29 119.72,-110.11"/>
</g>
<!-- казарма 🛏️ -->
<g id="node3" class="node">
<title>казарма 🛏️</title>
<path fill="#b2dfee" stroke="#b2dfee" d="M110.5,-0.5C110.5,-0.5 187.5,-0.5 187.5,-0.5 193.5,-0.5 199.5,-6.5 199.5,-12.5 199.5,-12.5 199.5,-25.5 199.5,-25.5 199.5,-31.5 193.5,-37.5 187.5,-37.5 187.5,-37.5 110.5,-37.5 110.5,-37.5 104.5,-37.5 98.5,-31.5 98.5,-25.5 98.5,-25.5 98.5,-12.5 98.5,-12.5 98.5,-6.5 104.5,-0.5 110.5,-0.5"/>
<text text-anchor="middle" x="149" y="-15.3" font-family="Raleway" font-size="14.00">казарма 🛏️</text>
</g>
<!-- оружейная 🔒&#45;&#45;казарма 🛏️ -->
<g id="edge2" class="edge">
<title>оружейная 🔒&#45;&#45;казарма 🛏️</title>
<path fill="none" stroke="gray" d="M205.58,-147C203.55,-128.3 198.76,-97.7 188,-73.5 182.12,-60.27 172.58,-47.1 164.4,-37.14"/>
</g>
<!-- командный центр 🖥️&#45;&#45;казарма 🛏️ -->
<g id="edge3" class="edge">
<title>командный центр 🖥️&#45;&#45;казарма 🛏️</title>
<path fill="none" stroke="gray" d="M105.8,-73.81C114.76,-62.65 126.39,-48.16 135.33,-37.03"/>
</g>
<!-- радиорубка 📡 -->
<g id="node4" class="node">
<title>радиорубка 📡</title>
<path fill="#b2dfee" stroke="#b2dfee" d="M12,-146.5C12,-146.5 116,-146.5 116,-146.5 122,-146.5 128,-152.5 128,-158.5 128,-158.5 128,-171.5 128,-171.5 128,-177.5 122,-183.5 116,-183.5 116,-183.5 12,-183.5 12,-183.5 6,-183.5 0,-177.5 0,-171.5 0,-171.5 0,-158.5 0,-158.5 0,-152.5 6,-146.5 12,-146.5"/>
<text text-anchor="middle" x="64" y="-161.3" font-family="Raleway" font-size="14.00">радиорубка 📡</text>
</g>
<!-- радиорубка 📡&#45;&#45;командный центр 🖥️ -->
<g id="edge4" class="edge">
<title>радиорубка 📡&#45;&#45;командный центр 🖥️</title>
<path fill="none" stroke="gray" d="M70.78,-146.81C75.18,-135.65 80.89,-121.16 85.28,-110.03"/>
</g>
</g>
</svg>
