<?xml version="1.0" encoding="UTF-8" standalone="no"?>
<!DOCTYPE svg PUBLIC "-//W3C//DTD SVG 1.1//EN"
 "http://www.w3.org/Graphics/SVG/1.1/DTD/svg11.dtd">
<!-- Generated by graphviz version 2.43.0 (0)
 -->
<!-- Pages: 1 -->
<svg width="189pt" height="265pt"
 viewBox="0.00 0.00 189.00 265.00" xmlns="http://www.w3.org/2000/svg" xmlns:xlink="http://www.w3.org/1999/xlink">
<g id="graph0" class="graph" transform="scale(1 1) rotate(0) translate(4 261)">
<!-- большой зал 🍷 -->
<g id="node1" class="node">
<title>большой зал 🍷</title>
<path fill="#b2dfee" stroke="#b2dfee" d="M59,-219.5C59,-219.5 169,-219.5 169,-219.5 175,-219.5 181,-225.5 181,-231.5 181,-231.5 181,-244.5 181,-244.5 181,-250.5 175,-256.5 169,-256.5 169,-256.5 59,-256.5 59,-256.5 53,-256.5 47,-250.5 47,-244.5 47,-244.5 47,-231.5 47,-231.5 47,-225.5 53,-219.5 59,-219.5"/>
<text text-anchor="middle" x="114" y="-234.3" font-family="Raleway" font-size="14.00">большой зал 🍷</text>
</g>
<!-- опочивальня 🛏️ -->
<g id="node2" class="node">
<title>опочивальня 🛏️</title>
<path fill="#b2dfee" stroke="#b2dfee" d="M12,-146.5C12,-146.5 122,-146.5 122,-146.5 128,-146.5 134,-152.5 134,-158.5 134,-158.5 134,-171.5 134,-171.5 134,-177.5 128,-183.5 122,-183.5 122,-183.5 12,-183.5 12,-183.5 6,-183.5 0,-177.5 0,-171.5 0,-171.5 0,-158.5 0,-158.5 0,-152.5 6,-146.5 12,-146.5"/>
<text text-anchor="middle" x="67" y="-161.3" font-family="Raleway" font-size="14.00">опочивальня 🛏️</text>
</g>
<!-- большой зал 🍷&#45;&#45;опочивальня 🛏️ -->
<g id="edge1" class="edge">
<title>большой зал 🍷&#45;&#45;опочивальня 🛏️</title>
<path fill="none" stroke="gray" d="M102.62,-219.81C95.23,-208.65 85.64,-194.16 78.27,-183.03"/>
</g>
<!-- оружейная 🛡️ -->
<g id="node3" class="node">
<title>оружейная 🛡️</title>
<path fill="#b2dfee" stroke="#b2dfee" d="M65,-73.5C65,-73.5 163,-73.5 163,-73.5 169,-73.5 175,-79.5 175,-85.5 175,-85.5 175,-98.5 175,-98.5 175,-104.5 169,-110.5 163,-110.5 163,-110.5 65,-110.5 65,-110.5 59,-110.5 53,-104.5 53,-98.5 53,-98.5 53,-85.5 53,-85.5 53,-79.5 59,-73.5 65,-73.5"/>
<text text-anchor="middle" x="114" y="-88.3" font-family="Raleway" font-size="14.00">оружейная 🛡️</text>
</g>
<!-- большой зал 🍷&#45;&#45;оружейная 🛡️ -->
<g id="edge2" class="edge">
<title>большой зал 🍷&#45;&#45;оружейная 🛡️</title>
<path fill="none" stroke="gray" d="M126.31,-219.61C132.65,-209.57 139.73,-196.4 143,-183.5 147.04,-167.56 147.04,-162.44 143,-146.5 139.73,-133.6 132.65,-120.43 126.31,-110.39"/>
</g>
<!-- опочивальня 🛏️&#45;&#45;оружейная 🛡️ -->
<g id="edge3" class="edge">
<title>опочивальня 🛏️&#45;&#45;оружейная 🛡️</title>
<path fill="none" stroke="gray" d="M78.38,-146.81C85.77,-135.65 95.36,-121.16 102.73,-110.03"/>
</g>
<!-- темница 🔒 -->
<g id="node4" class="node">
<title>темница 🔒</title>
<path fill="#b2dfee" stroke="#b2dfee" d="M74,-0.5C74,-0.5 154,-0.5 154,-0.5 160,-0.5 166,-6.5 166,-12.5 166,-12.5 166,-25.5 166,-25.5 166,-31.5 160,-37.5 154,-37.5 154,-37.5 74,-37.5 74,-37.5 68,-37.5 62,-31.5 62,-25.5 62,-25.5 62,-12.5 62,-12.5 62,-6.5 68,-0.5 74,-0.5"/>
<text text-anchor="middle" x="114" y="-15.3" font-family="Raleway" font-size="14.00">темница 🔒</text>
</g>
<!-- оружейная 🛡️&#45;&#45;темница 🔒 -->
<g id="edge4" class="edge">
<title>оружейная 🛡️&#45;&#45;темница 🔒</title>
<path fill="none" stroke="gray" d="M114,-73.81C114,-62.65 114,-48.16 114,-37.03"/>
</g>
</g>
</svg>
