<?xml version="1.0" encoding="UTF-8" standalone="no"?>
<!DOCTYPE svg PUBLIC "-//W3C//DTD SVG 1.1//EN"
 "http://www.w3.org/Graphics/SVG/1.1/DTD/svg11.dtd">
<!-- Generated by graphviz version 2.43.0 (0)
 -->
<!-- Pages: 1 -->
<svg width="308pt" height="119pt"
 viewBox="0.00 0.00 308.00 119.00" xmlns="http://www.w3.org/2000/svg" xmlns:xlink="http://www.w3.org/1999/xlink">
<g id="graph0" class="graph" transform="scale(1 1) rotate(0) translate(4 115)">
<!-- тронный зал 👑 -->
<g id="node1" class="node">
<title>тронный зал 👑</title>
<path fill="#b2dfee" stroke="#b2dfee" d="M50,-73.5C50,-73.5 160,-73.5 160,-73.5 166,-73.5 172,-79.5 172,-85.5 172,-85.5 172,-98.5 172,-98.5 172,-104.5 166,-110.5 160,-110.5 160,-110.5 50,-110.5 50,-110.5 44,-110.5 38,-104.5 38,-98.5 38,-98.5 38,-85.5 38,-85.5 38,-79.5 44,-73.5 50,-73.5"/>
<text text-anchor="middle" x="105" y="-88.3" font-family="Raleway" font-size="14.00">тронный зал 👑</text>
</g>
<!-- погребальная камера ⚱️ -->
<g id="node2" class="node">
<title>погребальная камера ⚱️</title>
<path fill="#b2dfee" stroke="#b2dfee" d="M12,-0.5C12,-0.5 180,-0.5 180,-0.5 186,-0.5 192,-6.5 192,-12.5 192,-12.5 192,-25.5 192,-25.5 192,-31.5 186,-37.5 180,-37.5 180,-37.5 12,-37.5 12,-37.5 6,-37.5 0,-31.5 0,-25.5 0,-25.5 0,-12.5 0,-12.5 0,-6.5 6,-0.5 12,-0.5"/>
<text text-anchor="middle" x="96" y="-15.3" font-family="Raleway" font-size="14.00">погребальная камера ⚱️</text>
</g>
<!-- тронный зал 👑&#45;&#45;погребальная камера ⚱️ -->
<g id="edge1" class="edge">
<title>тронный зал 👑&#45;&#45;погребальная камера ⚱️</title>
<path fill="none" stroke="gray" d="M102.82,-73.81C101.41,-62.65 99.57,-48.16 98.16,-37.03"/>
</g>
<!-- храм 📿 -->
<g id="node3" class="node">
<title>храм 📿</title>
<path fill="#b2dfee" stroke="#b2dfee" d="M222.5,-0.5C222.5,-0.5 275.5,-0.5 275.5,-0.5 281.5,-0.5 287.5,-6.5 287.5,-12.5 287.5,-12.5 287.5,-25.5 287.5,-25.5 287.5,-31.5 281.5,-37.5 275.5,-37.5 275.5,-37.5 222.5,-37.5 222.5,-37.5 216.5,-37.5 210.5,-31.5 210.5,-25.5 210.5,-25.5 210.5,-12.5 210.5,-12.5 210.5,-6.5 216.5,-0.5 222.5,-0.5"/>
<text text-anchor="middle" x="249" y="-15.3" font-family="Raleway" font-size="14.00">храм 📿</text>
</g>
<!-- тронный зал 👑&#45;&#45;храм 📿 -->
<g id="edge2" class="edge">
<title>тронный зал 👑&#45;&#45;храм 📿</title>
<path fill="none" stroke="gray" d="M139.49,-73.99C162.12,-62.84 191.62,-48.29 214.29,-37.11"/>
</g>
<!-- пустыня 🏜️ -->
<g id="node4" class="node">
<title>пустыня 🏜️</title>
<path fill="#b2dfee" stroke="#b2dfee" d="M210,-73.5C210,-73.5 288,-73.5 288,-73.5 294,-73.5 300,-79.5 300,-85.5 300,-85.5 300,-98.5 300,-98.5 300,-104.5 294,-110.5 288,-110.5 288,-110.5 210,-110.5 210,-110.5 204,-110.5 198,-104.5 198,-98.5 198,-98.5 198,-85.5 198,-85.5 198,-79.5 204,-73.5 210,-73.5"/>
<text text-anchor="middle" x="249" y="-88.3" font-family="Raleway" font-size="14.00">пустыня 🏜️</text>
</g>
<!-- пустыня 🏜️&#45;&#45;храм 📿 -->
<g id="edge3" class="edge">
<title>пустыня 🏜️&#45;&#45;храм 📿</title>
<path fill="none" stroke="gray" d="M249,-73.81C249,-62.65 249,-48.16 249,-37.03"/>
</g>
</g>
</svg>
