<?xml version="1.0" encoding="UTF-8" standalone="no"?>
<!DOCTYPE svg PUBLIC "-//W3C//DTD SVG 1.1//EN"
 "http://www.w3.org/Graphics/SVG/1.1/DTD/svg11.dtd">
<!-- Generated by graphviz version 2.43.0 (0)
 -->
<!-- Pages: 1 -->
<svg width="299pt" height="192pt"
 viewBox="0.00 0.00 299.00 192.00" xmlns="http://www.w3.org/2000/svg" xmlns:xlink="http://www.w3.org/1999/xlink">
<g id="graph0" class="graph" transform="scale(1 1) rotate(0) translate(4 188)">
<!-- лаборатория 🔬 -->
<g id="node1" class="node">
<title>лаборатория 🔬</title>
<path fill="#b2dfee" stroke="#b2dfee" d="M54,-146.5C54,-146.5 165,-146.5 165,-146.5 171,-146.5 177,-152.5 177,-158.5 177,-158.5 177,-171.5 177,-171.5 177,-177.5 171,-183.5 165,-183.5 165,-183.5 54,-183.5 54,-183.5 48,-183.5 42,-177.5 42,-171.5 42,-171.5 42,-158.5 42,-158.5 42,-152.5 48,-146.5 54,-146.5"/>
<text text-anchor="middle" x="109.5" y="-161.3" font-family="Raleway" font-size="14.00">лаборатория 🔬</text>
</g>
<!-- библиотека 📚 -->
<g id="node2" class="node">
<title>библиотека 📚</title>
<path fill="#b2dfee" stroke="#b2dfee" d="M12,-73.5C12,-73.5 115,-73.5 115,-73.5 121,-73.5 127,-79.5 127,-85.5 127,-85.5 127,-98.5 127,-98.5 127,-104.5 121,-110.5 115,-110.5 115,-110.5 12,-110.5 12,-110.5 6,-110.5 0,-104.5 0,-98.5 0,-98.5 0,-85.5 0,-85.5 0,-79.5 6,-73.5 12,-73.5"/>
<text text-anchor="middle" x="63.5" y="-88.3" font-family="Raleway" font-size="14.00">библиотека 📚</text>
</g>
<!-- лаборатория 🔬&#45;&#45;библиотека 📚 -->
<g id="edge1" class="edge">
<title>лаборатория 🔬&#45;&#45;библиотека 📚</title>
<path fill="none" stroke="gray" d="M98.36,-146.81C91.13,-135.65 81.75,-121.16 74.53,-110.03"/>
</g>
<!-- класс рисования 🎨 -->
<g id="node3" class="node">
<title>класс рисования 🎨</title>
<path fill="#b2dfee" stroke="#b2dfee" d="M86.5,-0.5C86.5,-0.5 224.5,-0.5 224.5,-0.5 230.5,-0.5 236.5,-6.5 236.5,-12.5 236.5,-12.5 236.5,-25.5 236.5,-25.5 236.5,-31.5 230.5,-37.5 224.5,-37.5 224.5,-37.5 86.5,-37.5 86.5,-37.5 80.5,-37.5 74.5,-31.5 74.5,-25.5 74.5,-25.5 74.5,-12.5 74.5,-12.5 74.5,-6.5 80.5,-0.5 86.5,-0.5"/>
<text text-anchor="middle" x="155.5" y="-15.3" font-family="Raleway" font-size="14.00">класс рисования 🎨</text>
</g>
<!-- лаборатория 🔬&#45;&#45;класс рисования 🎨 -->
<g id="edge2" class="edge">
<title>лаборатория 🔬&#45;&#45;класс рисования 🎨</title>
<path fill="none" stroke="gray" d="M119.24,-146.61C124.65,-136.36 131.15,-122.98 135.5,-110.5 144.17,-85.58 149.94,-55.45 152.97,-37.01"/>
</g>
<!-- библиотека 📚&#45;&#45;класс рисования 🎨 -->
<g id="edge3" class="edge">
<title>библиотека 📚&#45;&#45;класс рисования 🎨</title>
<path fill="none" stroke="gray" d="M85.77,-73.81C100.24,-62.65 119.01,-48.16 133.43,-37.03"/>
</g>
<!-- спортзал 💪 -->
<g id="node4" class="node">
<title>спортзал 💪</title>
<path fill="#b2dfee" stroke="#b2dfee" d="M196,-73.5C196,-73.5 279,-73.5 279,-73.5 285,-73.5 291,-79.5 291,-85.5 291,-85.5 291,-98.5 291,-98.5 291,-104.5 285,-110.5 279,-110.5 279,-110.5 196,-110.5 196,-110.5 190,-110.5 184,-104.5 184,-98.5 184,-98.5 184,-85.5 184,-85.5 184,-79.5 190,-73.5 196,-73.5"/>
<text text-anchor="middle" x="237.5" y="-88.3" font-family="Raleway" font-size="14.00">спортзал 💪</text>
</g>
<!-- спортзал 💪&#45;&#45;класс рисования 🎨 -->
<g id="edge4" class="edge">
<title>спортзал 💪&#45;&#45;класс рисования 🎨</title>
<path fill="none" stroke="gray" d="M217.65,-73.81C204.76,-62.65 188.02,-48.16 175.17,-37.03"/>
</g>
</g>
</svg>
