<?xml version="1.0" encoding="UTF-8" standalone="no"?>
<!DOCTYPE svg PUBLIC "-//W3C//DTD SVG 1.1//EN"
 "http://www.w3.org/Graphics/SVG/1.1/DTD/svg11.dtd">
<!-- Generated by graphviz version 2.43.0 (0)
 -->
<!-- Pages: 1 -->
<svg width="50pt" height="132pt"
 viewBox="0.00 0.00 50.00 132.00" xmlns="http://www.w3.org/2000/svg" xmlns:xlink="http://www.w3.org/1999/xlink">
<g id="graph0" class="graph" transform="scale(1 1) rotate(0) translate(4 128)">
<!-- 🦁 -->
<g id="node1" class="node">
<title>🦁</title>
<text text-anchor="middle" x="21" y="-102.3" font-family="Raleway" font-size="14.00">🦁</text>
</g>
<!-- 🦎 -->
<g id="node2" class="node">
<title>🦎</title>
<text text-anchor="middle" x="21" y="-58.3" font-family="Raleway" font-size="14.00">🦎</text>
</g>
<!-- 🦁&#45;&#45;🦎 -->
<g id="edge1" class="edge">
<title>🦁&#45;&#45;🦎</title>
<path fill="none" stroke="dimgrey" d="M21,-87.92C21,-85.37 21,-82.75 21,-80.2"/>
</g>
<!-- 🦜 -->
<g id="node3" class="node">
<title>🦜</title>
<text text-anchor="middle" x="7" y="-14.3" font-family="Raleway" font-size="14.00">🦜</text>
</g>
<!-- 🦁&#45;&#45;🦜 -->
<g id="edge2" class="edge">
<title>🦁&#45;&#45;🦜</title>
<path fill="none" stroke="dimgrey" d="M13.98,-89.64C12.8,-86.51 11.72,-83.19 11,-80 7.69,-65.41 6.81,-48.38 6.69,-36.03"/>
</g>
<!-- 🐒 -->
<g id="node4" class="node">
<title>🐒</title>
<text text-anchor="middle" x="35" y="-14.3" font-family="Raleway" font-size="14.00">🐒</text>
</g>
<!-- 🦁&#45;&#45;🐒 -->
<g id="edge3" class="edge">
<title>🦁&#45;&#45;🐒</title>
<path fill="none" stroke="dimgrey" d="M28.02,-89.64C29.2,-86.51 30.28,-83.19 31,-80 34.31,-65.41 35.19,-48.38 35.31,-36.03"/>
</g>
<!-- 🦎&#45;&#45;🦜 -->
<g id="edge4" class="edge">
<title>🦎&#45;&#45;🦜</title>
<path fill="none" stroke="dimgrey" d="M15.31,-43.92C14.46,-41.37 13.58,-38.75 12.73,-36.2"/>
</g>
<!-- 🦎&#45;&#45;🐒 -->
<g id="edge5" class="edge">
<title>🦎&#45;&#45;🐒</title>
<path fill="none" stroke="dimgrey" d="M26.69,-43.92C27.54,-41.37 28.42,-38.75 29.27,-36.2"/>
</g>
</g>
</svg>
