<?xml version="1.0" encoding="UTF-8" standalone="no"?>
<!DOCTYPE svg PUBLIC "-//W3C//DTD SVG 1.1//EN"
 "http://www.w3.org/Graphics/SVG/1.1/DTD/svg11.dtd">
<!-- Generated by graphviz version 2.43.0 (0)
 -->
<!-- Pages: 1 -->
<svg width="316pt" height="192pt"
 viewBox="0.00 0.00 315.50 192.00" xmlns="http://www.w3.org/2000/svg" xmlns:xlink="http://www.w3.org/1999/xlink">
<g id="graph0" class="graph" transform="scale(1 1) rotate(0) translate(4 188)">
<!-- вольер львов 🦁 -->
<g id="node1" class="node">
<title>вольер львов 🦁</title>
<path fill="#b2dfee" stroke="#b2dfee" d="M90,-146.5C90,-146.5 204,-146.5 204,-146.5 210,-146.5 216,-152.5 216,-158.5 216,-158.5 216,-171.5 216,-171.5 216,-177.5 210,-183.5 204,-183.5 204,-183.5 90,-183.5 90,-183.5 84,-183.5 78,-177.5 78,-171.5 78,-171.5 78,-158.5 78,-158.5 78,-152.5 84,-146.5 90,-146.5"/>
<text text-anchor="middle" x="147" y="-161.3" font-family="Raleway" font-size="14.00">вольер львов 🦁</text>
</g>
<!-- террариум 🦎 -->
<g id="node2" class="node">
<title>террариум 🦎</title>
<path fill="#b2dfee" stroke="#b2dfee" d="M99,-73.5C99,-73.5 195,-73.5 195,-73.5 201,-73.5 207,-79.5 207,-85.5 207,-85.5 207,-98.5 207,-98.5 207,-104.5 201,-110.5 195,-110.5 195,-110.5 99,-110.5 99,-110.5 93,-110.5 87,-104.5 87,-98.5 87,-98.5 87,-85.5 87,-85.5 87,-79.5 93,-73.5 99,-73.5"/>
<text text-anchor="middle" x="147" y="-88.3" font-family="Raleway" font-size="14.00">террариум 🦎</text>
</g>
<!-- вольер львов 🦁&#45;&#45;террариум 🦎 -->
<g id="edge1" class="edge">
<title>вольер львов 🦁&#45;&#45;террариум 🦎</title>
<path fill="none" stroke="gray" d="M147,-146.81C147,-135.65 147,-121.16 147,-110.03"/>
</g>
<!-- вольер птиц 🦜 -->
<g id="node3" class="node">
<title>вольер птиц 🦜</title>
<path fill="#b2dfee" stroke="#b2dfee" d="M12,-0.5C12,-0.5 120,-0.5 120,-0.5 126,-0.5 132,-6.5 132,-12.5 132,-12.5 132,-25.5 132,-25.5 132,-31.5 126,-37.5 120,-37.5 120,-37.5 12,-37.5 12,-37.5 6,-37.5 0,-31.5 0,-25.5 0,-25.5 0,-12.5 0,-12.5 0,-6.5 6,-0.5 12,-0.5"/>
<text text-anchor="middle" x="66" y="-15.3" font-family="Raleway" font-size="14.00">вольер птиц 🦜</text>
</g>
<!-- вольер львов 🦁&#45;&#45;вольер птиц 🦜 -->
<g id="edge2" class="edge">
<title>вольер львов 🦁&#45;&#45;вольер птиц 🦜</title>
<path fill="none" stroke="gray" d="M115.17,-146.94C101.49,-137.95 86.69,-125.61 78,-110.5 64.89,-87.69 63.74,-56.41 64.55,-37.23"/>
</g>
<!-- остров обезьян 🐒 -->
<g id="node4" class="node">
<title>остров обезьян 🐒</title>
<path fill="#b2dfee" stroke="#b2dfee" d="M166.5,-0.5C166.5,-0.5 295.5,-0.5 295.5,-0.5 301.5,-0.5 307.5,-6.5 307.5,-12.5 307.5,-12.5 307.5,-25.5 307.5,-25.5 307.5,-31.5 301.5,-37.5 295.5,-37.5 295.5,-37.5 166.5,-37.5 166.5,-37.5 160.5,-37.5 154.5,-31.5 154.5,-25.5 154.5,-25.5 154.5,-12.5 154.5,-12.5 154.5,-6.5 160.5,-0.5 166.5,-0.5"/>
<text text-anchor="middle" x="231" y="-15.3" font-family="Raleway" font-size="14.00">остров обезьян 🐒</text>
</g>
<!-- вольер львов 🦁&#45;&#45;остров обезьян 🐒 -->
<g id="edge3" class="edge">
<title>вольер львов 🦁&#45;&#45;остров обезьян 🐒</title>
<path fill="none" stroke="gray" d="M178.61,-146.81C192.24,-137.79 207.07,-125.47 216,-110.5 229.54,-87.79 231.83,-56.48 231.76,-37.27"/>
</g>
<!-- террариум 🦎&#45;&#45;вольер птиц 🦜 -->
<g id="edge4" class="edge">
<title>террариум 🦎&#45;&#45;вольер птиц 🦜</title>
<path fill="none" stroke="gray" d="M127.39,-73.81C114.66,-62.65 98.13,-48.16 85.43,-37.03"/>
</g>
<!-- террариум 🦎&#45;&#45;остров обезьян 🐒 -->
<g id="edge5" class="edge">
<title>террариум 🦎&#45;&#45;остров обезьян 🐒</title>
<path fill="none" stroke="gray" d="M167.33,-73.81C180.54,-62.65 197.68,-48.16 210.85,-37.03"/>
</g>
</g>
</svg>
