<?xml version="1.0" encoding="UTF-8" standalone="no"?>
<!DOCTYPE svg PUBLIC "-//W3C//DTD SVG 1.1//EN"
 "http://www.w3.org/Graphics/SVG/1.1/DTD/svg11.dtd">
<!-- Generated by graphviz version 2.43.0 (0)
 -->
<!-- Pages: 1 -->
<svg width="282pt" height="119pt"
 viewBox="0.00 0.00 282.00 119.00" xmlns="http://www.w3.org/2000/svg" xmlns:xlink="http://www.w3.org/1999/xlink">
<g id="graph0" class="graph" transform="scale(1 1) rotate(0) translate(4 115)">
<!-- большой зал 🍷 -->
<g id="node1" class="node">
<title>большой зал 🍷</title>
<path fill="#b2dfee" stroke="#b2dfee" d="M12,-73.5C12,-73.5 122,-73.5 122,-73.5 128,-73.5 134,-79.5 134,-85.5 134,-85.5 134,-98.5 134,-98.5 134,-104.5 128,-110.5 122,-110.5 122,-110.5 12,-110.5 12,-110.5 6,-110.5 0,-104.5 0,-98.5 0,-98.5 0,-85.5 0,-85.5 0,-79.5 6,-73.5 12,-73.5"/>
<text text-anchor="middle" x="67" y="-88.3" font-family="Raleway" font-size="14.00">большой зал 🍷</text>
</g>
<!-- опочивальня 🛏️ -->
<g id="node2" class="node">
<title>опочивальня 🛏️</title>
<path fill="#b2dfee" stroke="#b2dfee" d="M12,-0.5C12,-0.5 122,-0.5 122,-0.5 128,-0.5 134,-6.5 134,-12.5 134,-12.5 134,-25.5 134,-25.5 134,-31.5 128,-37.5 122,-37.5 122,-37.5 12,-37.5 12,-37.5 6,-37.5 0,-31.5 0,-25.5 0,-25.5 0,-12.5 0,-12.5 0,-6.5 6,-0.5 12,-0.5"/>
<text text-anchor="middle" x="67" y="-15.3" font-family="Raleway" font-size="14.00">опочивальня 🛏️</text>
</g>
<!-- большой зал 🍷&#45;&#45;опочивальня 🛏️ -->
<g id="edge1" class="edge">
<title>большой зал 🍷&#45;&#45;опочивальня 🛏️</title>
<path fill="none" stroke="gray" d="M67,-73.81C67,-62.65 67,-48.16 67,-37.03"/>
</g>
<!-- темница 🔒 -->
<g id="node3" class="node">
<title>темница 🔒</title>
<path fill="#b2dfee" stroke="#b2dfee" d="M168,-0.5C168,-0.5 248,-0.5 248,-0.5 254,-0.5 260,-6.5 260,-12.5 260,-12.5 260,-25.5 260,-25.5 260,-31.5 254,-37.5 248,-37.5 248,-37.5 168,-37.5 168,-37.5 162,-37.5 156,-31.5 156,-25.5 156,-25.5 156,-12.5 156,-12.5 156,-6.5 162,-0.5 168,-0.5"/>
<text text-anchor="middle" x="208" y="-15.3" font-family="Raleway" font-size="14.00">темница 🔒</text>
</g>
<!-- большой зал 🍷&#45;&#45;темница 🔒 -->
<g id="edge2" class="edge">
<title>большой зал 🍷&#45;&#45;темница 🔒</title>
<path fill="none" stroke="gray" d="M100.77,-73.99C122.93,-62.84 151.81,-48.29 174.01,-37.11"/>
</g>
<!-- оружейная 🛡️ -->
<g id="node4" class="node">
<title>оружейная 🛡️</title>
<path fill="#b2dfee" stroke="#b2dfee" d="M164,-73.5C164,-73.5 262,-73.5 262,-73.5 268,-73.5 274,-79.5 274,-85.5 274,-85.5 274,-98.5 274,-98.5 274,-104.5 268,-110.5 262,-110.5 262,-110.5 164,-110.5 164,-110.5 158,-110.5 152,-104.5 152,-98.5 152,-98.5 152,-85.5 152,-85.5 152,-79.5 158,-73.5 164,-73.5"/>
<text text-anchor="middle" x="213" y="-88.3" font-family="Raleway" font-size="14.00">оружейная 🛡️</text>
</g>
<!-- оружейная 🛡️&#45;&#45;темница 🔒 -->
<g id="edge3" class="edge">
<title>оружейная 🛡️&#45;&#45;темница 🔒</title>
<path fill="none" stroke="gray" d="M211.79,-73.81C211,-62.65 209.98,-48.16 209.2,-37.03"/>
</g>
</g>
</svg>
