<?xml version="1.0" encoding="UTF-8" standalone="no"?>
<!DOCTYPE svg PUBLIC "-//W3C//DTD SVG 1.1//EN"
 "http://www.w3.org/Graphics/SVG/1.1/DTD/svg11.dtd">
<!-- Generated by graphviz version 2.43.0 (0)
 -->
<!-- Pages: 1 -->
<svg width="222pt" height="192pt"
 viewBox="0.00 0.00 221.50 192.00" xmlns="http://www.w3.org/2000/svg" xmlns:xlink="http://www.w3.org/1999/xlink">
<g id="graph0" class="graph" transform="scale(1 1) rotate(0) translate(4 188)">
<!-- science lab 🔬 -->
<g id="node1" class="node">
<title>science lab 🔬</title>
<path fill="#b2dfee" stroke="#b2dfee" d="M31,-146.5C31,-146.5 125,-146.5 125,-146.5 131,-146.5 137,-152.5 137,-158.5 137,-158.5 137,-171.5 137,-171.5 137,-177.5 131,-183.5 125,-183.5 125,-183.5 31,-183.5 31,-183.5 25,-183.5 19,-177.5 19,-171.5 19,-171.5 19,-158.5 19,-158.5 19,-152.5 25,-146.5 31,-146.5"/>
<text text-anchor="middle" x="78" y="-161.3" font-family="Raleway" font-size="14.00">science lab 🔬</text>
</g>
<!-- library 📚 -->
<g id="node2" class="node">
<title>library 📚</title>
<path fill="#b2dfee" stroke="#b2dfee" d="M12,-73.5C12,-73.5 74,-73.5 74,-73.5 80,-73.5 86,-79.5 86,-85.5 86,-85.5 86,-98.5 86,-98.5 86,-104.5 80,-110.5 74,-110.5 74,-110.5 12,-110.5 12,-110.5 6,-110.5 0,-104.5 0,-98.5 0,-98.5 0,-85.5 0,-85.5 0,-79.5 6,-73.5 12,-73.5"/>
<text text-anchor="middle" x="43" y="-88.3" font-family="Raleway" font-size="14.00">library 📚</text>
</g>
<!-- science lab 🔬&#45;&#45;library 📚 -->
<g id="edge1" class="edge">
<title>science lab 🔬&#45;&#45;library 📚</title>
<path fill="none" stroke="gray" d="M69.53,-146.81C64.03,-135.65 56.88,-121.16 51.4,-110.03"/>
</g>
<!-- art classroom 🎨 -->
<g id="node3" class="node">
<title>art classroom 🎨</title>
<path fill="#b2dfee" stroke="#b2dfee" d="M59,-0.5C59,-0.5 169,-0.5 169,-0.5 175,-0.5 181,-6.5 181,-12.5 181,-12.5 181,-25.5 181,-25.5 181,-31.5 175,-37.5 169,-37.5 169,-37.5 59,-37.5 59,-37.5 53,-37.5 47,-31.5 47,-25.5 47,-25.5 47,-12.5 47,-12.5 47,-6.5 53,-0.5 59,-0.5"/>
<text text-anchor="middle" x="114" y="-15.3" font-family="Raleway" font-size="14.00">art classroom 🎨</text>
</g>
<!-- science lab 🔬&#45;&#45;art classroom 🎨 -->
<g id="edge2" class="edge">
<title>science lab 🔬&#45;&#45;art classroom 🎨</title>
<path fill="none" stroke="gray" d="M83.96,-146.78C87.44,-136.36 91.78,-122.75 95,-110.5 101.66,-85.19 107.54,-55.42 110.94,-37.13"/>
</g>
<!-- library 📚&#45;&#45;art classroom 🎨 -->
<g id="edge3" class="edge">
<title>library 📚&#45;&#45;art classroom 🎨</title>
<path fill="none" stroke="gray" d="M60.19,-73.81C71.35,-62.65 85.84,-48.16 96.97,-37.03"/>
</g>
<!-- gym 💪 -->
<g id="node4" class="node">
<title>gym 💪</title>
<path fill="#b2dfee" stroke="#b2dfee" d="M154.5,-73.5C154.5,-73.5 201.5,-73.5 201.5,-73.5 207.5,-73.5 213.5,-79.5 213.5,-85.5 213.5,-85.5 213.5,-98.5 213.5,-98.5 213.5,-104.5 207.5,-110.5 201.5,-110.5 201.5,-110.5 154.5,-110.5 154.5,-110.5 148.5,-110.5 142.5,-104.5 142.5,-98.5 142.5,-98.5 142.5,-85.5 142.5,-85.5 142.5,-79.5 148.5,-73.5 154.5,-73.5"/>
<text text-anchor="middle" x="178" y="-88.3" font-family="Raleway" font-size="14.00">gym 💪</text>
</g>
<!-- gym 💪&#45;&#45;art classroom 🎨 -->
<g id="edge4" class="edge">
<title>gym 💪&#45;&#45;art classroom 🎨</title>
<path fill="none" stroke="gray" d="M162.51,-73.81C152.44,-62.65 139.38,-48.16 129.35,-37.03"/>
</g>
</g>
</svg>
