<?xml version="1.0" encoding="UTF-8" standalone="no"?>
<!DOCTYPE svg PUBLIC "-//W3C//DTD SVG 1.1//EN"
 "http://www.w3.org/Graphics/SVG/1.1/DTD/svg11.dtd">
<!-- Generated by graphviz version 2.43.0 (0)
 -->
<!-- Pages: 1 -->
<svg width="262pt" height="119pt"
 viewBox="0.00 0.00 261.50 119.00" xmlns="http://www.w3.org/2000/svg" xmlns:xlink="http://www.w3.org/1999/xlink">
<g id="graph0" class="graph" transform="scale(1 1) rotate(0) translate(4 115)">
<!-- great hall 🍷 -->
<g id="node1" class="node">
<title>great hall 🍷</title>
<path fill="#b2dfee" stroke="#b2dfee" d="M35.5,-73.5C35.5,-73.5 117.5,-73.5 117.5,-73.5 123.5,-73.5 129.5,-79.5 129.5,-85.5 129.5,-85.5 129.5,-98.5 129.5,-98.5 129.5,-104.5 123.5,-110.5 117.5,-110.5 117.5,-110.5 35.5,-110.5 35.5,-110.5 29.5,-110.5 23.5,-104.5 23.5,-98.5 23.5,-98.5 23.5,-85.5 23.5,-85.5 23.5,-79.5 29.5,-73.5 35.5,-73.5"/>
<text text-anchor="middle" x="76.5" y="-88.3" font-family="Raleway" font-size="14.00">great hall 🍷</text>
</g>
<!-- bed chamber 🛏️ -->
<g id="node2" class="node">
<title>bed chamber 🛏️</title>
<path fill="#b2dfee" stroke="#b2dfee" d="M12,-0.5C12,-0.5 121,-0.5 121,-0.5 127,-0.5 133,-6.5 133,-12.5 133,-12.5 133,-25.5 133,-25.5 133,-31.5 127,-37.5 121,-37.5 121,-37.5 12,-37.5 12,-37.5 6,-37.5 0,-31.5 0,-25.5 0,-25.5 0,-12.5 0,-12.5 0,-6.5 6,-0.5 12,-0.5"/>
<text text-anchor="middle" x="66.5" y="-15.3" font-family="Raleway" font-size="14.00">bed chamber 🛏️</text>
</g>
<!-- great hall 🍷&#45;&#45;bed chamber 🛏️ -->
<g id="edge1" class="edge">
<title>great hall 🍷&#45;&#45;bed chamber 🛏️</title>
<path fill="none" stroke="gray" d="M74.08,-73.81C72.51,-62.65 70.47,-48.16 68.9,-37.03"/>
</g>
<!-- dungeon 🔒 -->
<g id="node3" class="node">
<title>dungeon 🔒</title>
<path fill="#b2dfee" stroke="#b2dfee" d="M163.5,-0.5C163.5,-0.5 241.5,-0.5 241.5,-0.5 247.5,-0.5 253.5,-6.5 253.5,-12.5 253.5,-12.5 253.5,-25.5 253.5,-25.5 253.5,-31.5 247.5,-37.5 241.5,-37.5 241.5,-37.5 163.5,-37.5 163.5,-37.5 157.5,-37.5 151.5,-31.5 151.5,-25.5 151.5,-25.5 151.5,-12.5 151.5,-12.5 151.5,-6.5 157.5,-0.5 163.5,-0.5"/>
<text text-anchor="middle" x="202.5" y="-15.3" font-family="Raleway" font-size="14.00">dungeon 🔒</text>
</g>
<!-- great hall 🍷&#45;&#45;dungeon 🔒 -->
<g id="edge2" class="edge">
<title>great hall 🍷&#45;&#45;dungeon 🔒</title>
<path fill="none" stroke="gray" d="M106.68,-73.99C126.48,-62.84 152.29,-48.29 172.13,-37.11"/>
</g>
<!-- armory 🛡️ -->
<g id="node4" class="node">
<title>armory 🛡️</title>
<path fill="#b2dfee" stroke="#b2dfee" d="M169.5,-73.5C169.5,-73.5 235.5,-73.5 235.5,-73.5 241.5,-73.5 247.5,-79.5 247.5,-85.5 247.5,-85.5 247.5,-98.5 247.5,-98.5 247.5,-104.5 241.5,-110.5 235.5,-110.5 235.5,-110.5 169.5,-110.5 169.5,-110.5 163.5,-110.5 157.5,-104.5 157.5,-98.5 157.5,-98.5 157.5,-85.5 157.5,-85.5 157.5,-79.5 163.5,-73.5 169.5,-73.5"/>
<text text-anchor="middle" x="202.5" y="-88.3" font-family="Raleway" font-size="14.00">armory 🛡️</text>
</g>
<!-- armory 🛡️&#45;&#45;dungeon 🔒 -->
<g id="edge3" class="edge">
<title>armory 🛡️&#45;&#45;dungeon 🔒</title>
<path fill="none" stroke="gray" d="M202.5,-73.81C202.5,-62.65 202.5,-48.16 202.5,-37.03"/>
</g>
</g>
</svg>
