<?xml version="1.0" encoding="UTF-8" standalone="no"?>
<!DOCTYPE svg PUBLIC "-//W3C//DTD SVG 1.1//EN"
 "http://www.w3.org/Graphics/SVG/1.1/DTD/svg11.dtd">
<!-- Generated by graphviz version 2.43.0 (0)
 -->
<!-- Pages: 1 -->
<svg width="254pt" height="119pt"
 viewBox="0.00 0.00 254.00 119.00" xmlns="http://www.w3.org/2000/svg" xmlns:xlink="http://www.w3.org/1999/xlink">
<g id="graph0" class="graph" transform="scale(1 1) rotate(0) translate(4 115)">
<!-- throne room 👑 -->
<g id="node1" class="node">
<title>throne room 👑</title>
<path fill="#b2dfee" stroke="#b2dfee" d="M23,-73.5C23,-73.5 124,-73.5 124,-73.5 130,-73.5 136,-79.5 136,-85.5 136,-85.5 136,-98.5 136,-98.5 136,-104.5 130,-110.5 124,-110.5 124,-110.5 23,-110.5 23,-110.5 17,-110.5 11,-104.5 11,-98.5 11,-98.5 11,-85.5 11,-85.5 11,-79.5 17,-73.5 23,-73.5"/>
<text text-anchor="middle" x="73.5" y="-88.3" font-family="Raleway" font-size="14.00">throne room 👑</text>
</g>
<!-- burial chamber ⚱️ -->
<g id="node2" class="node">
<title>burial chamber ⚱️</title>
<path fill="#b2dfee" stroke="#b2dfee" d="M12,-0.5C12,-0.5 127,-0.5 127,-0.5 133,-0.5 139,-6.5 139,-12.5 139,-12.5 139,-25.5 139,-25.5 139,-31.5 133,-37.5 127,-37.5 127,-37.5 12,-37.5 12,-37.5 6,-37.5 0,-31.5 0,-25.5 0,-25.5 0,-12.5 0,-12.5 0,-6.5 6,-0.5 12,-0.5"/>
<text text-anchor="middle" x="69.5" y="-15.3" font-family="Raleway" font-size="14.00">burial chamber ⚱️</text>
</g>
<!-- throne room 👑&#45;&#45;burial chamber ⚱️ -->
<g id="edge1" class="edge">
<title>throne room 👑&#45;&#45;burial chamber ⚱️</title>
<path fill="none" stroke="gray" d="M72.53,-73.81C71.9,-62.65 71.09,-48.16 70.46,-37.03"/>
</g>
<!-- temple 📿 -->
<g id="node3" class="node">
<title>temple 📿</title>
<path fill="#b2dfee" stroke="#b2dfee" d="M169,-0.5C169,-0.5 234,-0.5 234,-0.5 240,-0.5 246,-6.5 246,-12.5 246,-12.5 246,-25.5 246,-25.5 246,-31.5 240,-37.5 234,-37.5 234,-37.5 169,-37.5 169,-37.5 163,-37.5 157,-31.5 157,-25.5 157,-25.5 157,-12.5 157,-12.5 157,-6.5 163,-0.5 169,-0.5"/>
<text text-anchor="middle" x="201.5" y="-15.3" font-family="Raleway" font-size="14.00">temple 📿</text>
</g>
<!-- throne room 👑&#45;&#45;temple 📿 -->
<g id="edge2" class="edge">
<title>throne room 👑&#45;&#45;temple 📿</title>
<path fill="none" stroke="gray" d="M104.16,-73.99C124.28,-62.84 150.49,-48.29 170.65,-37.11"/>
</g>
<!-- desert 🏜️ -->
<g id="node4" class="node">
<title>desert 🏜️</title>
<path fill="#b2dfee" stroke="#b2dfee" d="M171,-73.5C171,-73.5 232,-73.5 232,-73.5 238,-73.5 244,-79.5 244,-85.5 244,-85.5 244,-98.5 244,-98.5 244,-104.5 238,-110.5 232,-110.5 232,-110.5 171,-110.5 171,-110.5 165,-110.5 159,-104.5 159,-98.5 159,-98.5 159,-85.5 159,-85.5 159,-79.5 165,-73.5 171,-73.5"/>
<text text-anchor="middle" x="201.5" y="-88.3" font-family="Raleway" font-size="14.00">desert 🏜️</text>
</g>
<!-- desert 🏜️&#45;&#45;temple 📿 -->
<g id="edge3" class="edge">
<title>desert 🏜️&#45;&#45;temple 📿</title>
<path fill="none" stroke="gray" d="M201.5,-73.81C201.5,-62.65 201.5,-48.16 201.5,-37.03"/>
</g>
</g>
</svg>
