<?xml version="1.0" encoding="UTF-8" standalone="no"?>
<!DOCTYPE svg PUBLIC "-//W3C//DTD SVG 1.1//EN"
 "http://www.w3.org/Graphics/SVG/1.1/DTD/svg11.dtd">
<!-- Generated by graphviz version 2.43.0 (0)
 -->
<!-- Pages: 1 -->
<svg width="264pt" height="192pt"
 viewBox="0.00 0.00 264.00 192.00" xmlns="http://www.w3.org/2000/svg" xmlns:xlink="http://www.w3.org/1999/xlink">
<g id="graph0" class="graph" transform="scale(1 1) rotate(0) translate(4 188)">
<!-- lion enclosure 🦁 -->
<g id="node1" class="node">
<title>lion enclosure 🦁</title>
<path fill="#b2dfee" stroke="#b2dfee" d="M50,-146.5C50,-146.5 163,-146.5 163,-146.5 169,-146.5 175,-152.5 175,-158.5 175,-158.5 175,-171.5 175,-171.5 175,-177.5 169,-183.5 163,-183.5 163,-183.5 50,-183.5 50,-183.5 44,-183.5 38,-177.5 38,-171.5 38,-171.5 38,-158.5 38,-158.5 38,-152.5 44,-146.5 50,-146.5"/>
<text text-anchor="middle" x="106.5" y="-161.3" font-family="Raleway" font-size="14.00">lion enclosure 🦁</text>
</g>
<!-- reptile house 🦎 -->
<g id="node2" class="node">
<title>reptile house 🦎</title>
<path fill="#b2dfee" stroke="#b2dfee" d="M53,-73.5C53,-73.5 160,-73.5 160,-73.5 166,-73.5 172,-79.5 172,-85.5 172,-85.5 172,-98.5 172,-98.5 172,-104.5 166,-110.5 160,-110.5 160,-110.5 53,-110.5 53,-110.5 47,-110.5 41,-104.5 41,-98.5 41,-98.5 41,-85.5 41,-85.5 41,-79.5 47,-73.5 53,-73.5"/>
<text text-anchor="middle" x="106.5" y="-88.3" font-family="Raleway" font-size="14.00">reptile house 🦎</text>
</g>
<!-- lion enclosure 🦁&#45;&#45;reptile house 🦎 -->
<g id="edge1" class="edge">
<title>lion enclosure 🦁&#45;&#45;reptile house 🦎</title>
<path fill="none" stroke="gray" d="M106.5,-146.81C106.5,-135.65 106.5,-121.16 106.5,-110.03"/>
</g>
<!-- aviary 🦜 -->
<g id="node3" class="node">
<title>aviary 🦜</title>
<path fill="#b2dfee" stroke="#b2dfee" d="M12,-0.5C12,-0.5 71,-0.5 71,-0.5 77,-0.5 83,-6.5 83,-12.5 83,-12.5 83,-25.5 83,-25.5 83,-31.5 77,-37.5 71,-37.5 71,-37.5 12,-37.5 12,-37.5 6,-37.5 0,-31.5 0,-25.5 0,-25.5 0,-12.5 0,-12.5 0,-6.5 6,-0.5 12,-0.5"/>
<text text-anchor="middle" x="41.5" y="-15.3" font-family="Raleway" font-size="14.00">aviary 🦜</text>
</g>
<!-- lion enclosure 🦁&#45;&#45;aviary 🦜 -->
<g id="edge2" class="edge">
<title>lion enclosure 🦁&#45;&#45;aviary 🦜</title>
<path fill="none" stroke="gray" d="M69,-146.91C54.54,-138.22 39.55,-126.14 31.5,-110.5 19.49,-87.17 27.26,-56.05 34.21,-37.04"/>
</g>
<!-- monkey island 🐒 -->
<g id="node4" class="node">
<title>monkey island 🐒</title>
<path fill="#b2dfee" stroke="#b2dfee" d="M127,-0.5C127,-0.5 244,-0.5 244,-0.5 250,-0.5 256,-6.5 256,-12.5 256,-12.5 256,-25.5 256,-25.5 256,-31.5 250,-37.5 244,-37.5 244,-37.5 127,-37.5 127,-37.5 121,-37.5 115,-31.5 115,-25.5 115,-25.5 115,-12.5 115,-12.5 115,-6.5 121,-0.5 127,-0.5"/>
<text text-anchor="middle" x="185.5" y="-15.3" font-family="Raleway" font-size="14.00">monkey island 🐒</text>
</g>
<!-- lion enclosure 🦁&#45;&#45;monkey island 🐒 -->
<g id="edge3" class="edge">
<title>lion enclosure 🦁&#45;&#45;monkey island 🐒</title>
<path fill="none" stroke="gray" d="M143.27,-146.97C157.8,-138.23 173.02,-126.1 181.5,-110.5 193.96,-87.56 191.94,-56.32 188.99,-37.19"/>
</g>
<!-- reptile house 🦎&#45;&#45;aviary 🦜 -->
<g id="edge4" class="edge">
<title>reptile house 🦎&#45;&#45;aviary 🦜</title>
<path fill="none" stroke="gray" d="M90.77,-73.81C80.55,-62.65 67.28,-48.16 57.09,-37.03"/>
</g>
<!-- reptile house 🦎&#45;&#45;monkey island 🐒 -->
<g id="edge5" class="edge">
<title>reptile house 🦎&#45;&#45;monkey island 🐒</title>
<path fill="none" stroke="gray" d="M125.62,-73.81C138.04,-62.65 154.17,-48.16 166.55,-37.03"/>
</g>
</g>
</svg>
