<?xml version="1.0" encoding="UTF-8" standalone="no"?>
<!DOCTYPE svg PUBLIC "-//W3C//DTD SVG 1.1//EN"
 "http://www.w3.org/Graphics/SVG/1.1/DTD/svg11.dtd">
<!-- Generated by graphviz version 2.43.0 (0)
 -->
<!-- Pages: 1 -->
<svg width="175pt" height="265pt"
 viewBox="0.00 0.00 174.50 265.00" xmlns="http://www.w3.org/2000/svg" xmlns:xlink="http://www.w3.org/1999/xlink">
<g id="graph0" class="graph" transform="scale(1 1) rotate(0) translate(4 261)">
<!-- great hall 🍷 -->
<g id="node1" class="node">
<title>great hall 🍷</title>
<path fill="#b2dfee" stroke="#b2dfee" d="M72.5,-219.5C72.5,-219.5 154.5,-219.5 154.5,-219.5 160.5,-219.5 166.5,-225.5 166.5,-231.5 166.5,-231.5 166.5,-244.5 166.5,-244.5 166.5,-250.5 160.5,-256.5 154.5,-256.5 154.5,-256.5 72.5,-256.5 72.5,-256.5 66.5,-256.5 60.5,-250.5 60.5,-244.5 60.5,-244.5 60.5,-231.5 60.5,-231.5 60.5,-225.5 66.5,-219.5 72.5,-219.5"/>
<text text-anchor="middle" x="113.5" y="-234.3" font-family="Raleway" font-size="14.00">great hall 🍷</text>
</g>
<!-- bed chamber 🛏️ -->
<g id="node2" class="node">
<title>bed chamber 🛏️</title>
<path fill="#b2dfee" stroke="#b2dfee" d="M12,-146.5C12,-146.5 121,-146.5 121,-146.5 127,-146.5 133,-152.5 133,-158.5 133,-158.5 133,-171.5 133,-171.5 133,-177.5 127,-183.5 121,-183.5 121,-183.5 12,-183.5 12,-183.5 6,-183.5 0,-177.5 0,-171.5 0,-171.5 0,-158.5 0,-158.5 0,-152.5 6,-146.5 12,-146.5"/>
<text text-anchor="middle" x="66.5" y="-161.3" font-family="Raleway" font-size="14.00">bed chamber 🛏️</text>
</g>
<!-- great hall 🍷&#45;&#45;bed chamber 🛏️ -->
<g id="edge1" class="edge">
<title>great hall 🍷&#45;&#45;bed chamber 🛏️</title>
<path fill="none" stroke="gray" d="M102.12,-219.81C94.73,-208.65 85.14,-194.16 77.77,-183.03"/>
</g>
<!-- armory 🛡️ -->
<g id="node3" class="node">
<title>armory 🛡️</title>
<path fill="#b2dfee" stroke="#b2dfee" d="M80.5,-73.5C80.5,-73.5 146.5,-73.5 146.5,-73.5 152.5,-73.5 158.5,-79.5 158.5,-85.5 158.5,-85.5 158.5,-98.5 158.5,-98.5 158.5,-104.5 152.5,-110.5 146.5,-110.5 146.5,-110.5 80.5,-110.5 80.5,-110.5 74.5,-110.5 68.5,-104.5 68.5,-98.5 68.5,-98.5 68.5,-85.5 68.5,-85.5 68.5,-79.5 74.5,-73.5 80.5,-73.5"/>
<text text-anchor="middle" x="113.5" y="-88.3" font-family="Raleway" font-size="14.00">armory 🛡️</text>
</g>
<!-- great hall 🍷&#45;&#45;armory 🛡️ -->
<g id="edge2" class="edge">
<title>great hall 🍷&#45;&#45;armory 🛡️</title>
<path fill="none" stroke="gray" d="M125.81,-219.61C132.15,-209.57 139.23,-196.4 142.5,-183.5 146.54,-167.56 146.54,-162.44 142.5,-146.5 139.23,-133.6 132.15,-120.43 125.81,-110.39"/>
</g>
<!-- bed chamber 🛏️&#45;&#45;armory 🛡️ -->
<g id="edge3" class="edge">
<title>bed chamber 🛏️&#45;&#45;armory 🛡️</title>
<path fill="none" stroke="gray" d="M77.88,-146.81C85.27,-135.65 94.86,-121.16 102.23,-110.03"/>
</g>
<!-- dungeon 🔒 -->
<g id="node4" class="node">
<title>dungeon 🔒</title>
<path fill="#b2dfee" stroke="#b2dfee" d="M74.5,-0.5C74.5,-0.5 152.5,-0.5 152.5,-0.5 158.5,-0.5 164.5,-6.5 164.5,-12.5 164.5,-12.5 164.5,-25.5 164.5,-25.5 164.5,-31.5 158.5,-37.5 152.5,-37.5 152.5,-37.5 74.5,-37.5 74.5,-37.5 68.5,-37.5 62.5,-31.5 62.5,-25.5 62.5,-25.5 62.5,-12.5 62.5,-12.5 62.5,-6.5 68.5,-0.5 74.5,-0.5"/>
<text text-anchor="middle" x="113.5" y="-15.3" font-family="Raleway" font-size="14.00">dungeon 🔒</text>
</g>
<!-- armory 🛡️&#45;&#45;dungeon 🔒 -->
<g id="edge4" class="edge">
<title>armory 🛡️&#45;&#45;dungeon 🔒</title>
<path fill="none" stroke="gray" d="M113.5,-73.81C113.5,-62.65 113.5,-48.16 113.5,-37.03"/>
</g>
</g>
</svg>
