<?xml version="1.0" encoding="UTF-8" standalone="no"?>
<!DOCTYPE svg PUBLIC "-//W3C//DTD SVG 1.1//EN"
 "http://www.w3.org/Graphics/SVG/1.1/DTD/svg11.dtd">
<!-- Generated by graphviz version 2.43.0 (0)
 -->
<!-- Pages: 1 -->
<svg width="239pt" height="192pt"
 viewBox="0.00 0.00 239.00 192.00" xmlns="http://www.w3.org/2000/svg" xmlns:xlink="http://www.w3.org/1999/xlink">
<g id="graph0" class="graph" transform="scale(1 1) rotate(0) translate(4 188)">
<!-- armory 🔒 -->
<g id="node1" class="node">
<title>armory 🔒</title>
<path fill="#b2dfee" stroke="#b2dfee" d="M153,-146.5C153,-146.5 219,-146.5 219,-146.5 225,-146.5 231,-152.5 231,-158.5 231,-158.5 231,-171.5 231,-171.5 231,-177.5 225,-183.5 219,-183.5 219,-183.5 153,-183.5 153,-183.5 147,-183.5 141,-177.5 141,-171.5 141,-171.5 141,-158.5 141,-158.5 141,-152.5 147,-146.5 153,-146.5"/>
<text text-anchor="middle" x="186" y="-161.3" font-family="Raleway" font-size="14.00">armory 🔒</text>
</g>
<!-- command center 🖥️ -->
<g id="node2" class="node">
<title>command center 🖥️</title>
<path fill="#b2dfee" stroke="#b2dfee" d="M12,-73.5C12,-73.5 146,-73.5 146,-73.5 152,-73.5 158,-79.5 158,-85.5 158,-85.5 158,-98.5 158,-98.5 158,-104.5 152,-110.5 146,-110.5 146,-110.5 12,-110.5 12,-110.5 6,-110.5 0,-104.5 0,-98.5 0,-98.5 0,-85.5 0,-85.5 0,-79.5 6,-73.5 12,-73.5"/>
<text text-anchor="middle" x="79" y="-88.3" font-family="Raleway" font-size="14.00">command center 🖥️</text>
</g>
<!-- armory 🔒&#45;&#45;command center 🖥️ -->
<g id="edge1" class="edge">
<title>armory 🔒&#45;&#45;command center 🖥️</title>
<path fill="none" stroke="gray" d="M160.37,-146.99C143.55,-135.83 121.64,-121.29 104.79,-110.11"/>
</g>
<!-- barracks 🛏️ -->
<g id="node3" class="node">
<title>barracks 🛏️</title>
<path fill="#b2dfee" stroke="#b2dfee" d="M93.5,-0.5C93.5,-0.5 170.5,-0.5 170.5,-0.5 176.5,-0.5 182.5,-6.5 182.5,-12.5 182.5,-12.5 182.5,-25.5 182.5,-25.5 182.5,-31.5 176.5,-37.5 170.5,-37.5 170.5,-37.5 93.5,-37.5 93.5,-37.5 87.5,-37.5 81.5,-31.5 81.5,-25.5 81.5,-25.5 81.5,-12.5 81.5,-12.5 81.5,-6.5 87.5,-0.5 93.5,-0.5"/>
<text text-anchor="middle" x="132" y="-15.3" font-family="Raleway" font-size="14.00">barracks 🛏️</text>
</g>
<!-- armory 🔒&#45;&#45;barracks 🛏️ -->
<g id="edge2" class="edge">
<title>armory 🔒&#45;&#45;barracks 🛏️</title>
<path fill="none" stroke="gray" d="M184.31,-146.76C182.05,-128.12 177.09,-97.82 167,-73.5 161.64,-60.58 153.08,-47.42 145.77,-37.38"/>
</g>
<!-- command center 🖥️&#45;&#45;barracks 🛏️ -->
<g id="edge3" class="edge">
<title>command center 🖥️&#45;&#45;barracks 🛏️</title>
<path fill="none" stroke="gray" d="M91.83,-73.81C100.16,-62.65 110.98,-48.16 119.29,-37.03"/>
</g>
<!-- radio room 📡 -->
<g id="node4" class="node">
<title>radio room 📡</title>
<path fill="#b2dfee" stroke="#b2dfee" d="M19,-146.5C19,-146.5 111,-146.5 111,-146.5 117,-146.5 123,-152.5 123,-158.5 123,-158.5 123,-171.5 123,-171.5 123,-177.5 117,-183.5 111,-183.5 111,-183.5 19,-183.5 19,-183.5 13,-183.5 7,-177.5 7,-171.5 7,-171.5 7,-158.5 7,-158.5 7,-152.5 13,-146.5 19,-146.5"/>
<text text-anchor="middle" x="65" y="-161.3" font-family="Raleway" font-size="14.00">radio room 📡</text>
</g>
<!-- radio room 📡&#45;&#45;command center 🖥️ -->
<g id="edge4" class="edge">
<title>radio room 📡&#45;&#45;command center 🖥️</title>
<path fill="none" stroke="gray" d="M68.39,-146.81C70.59,-135.65 73.45,-121.16 75.64,-110.03"/>
</g>
</g>
</svg>
